<mxfile host="app.diagrams.net" modified="2023-10-30T08:17:36.533Z" agent="Mozilla/5.0 (Windows NT 10.0; Win64; x64) AppleWebKit/537.36 (KHTML, like Gecko) Chrome/118.0.0.0 Safari/537.36" etag="XKjKD2BiYWetJKqCWbrO" version="22.0.8" type="device">
  <diagram name="Page-1" id="NUMuZsirnVWVvb4SAFIi">
    <mxGraphModel dx="794" dy="424" grid="1" gridSize="10" guides="1" tooltips="1" connect="1" arrows="1" fold="1" page="1" pageScale="1" pageWidth="850" pageHeight="1100" math="0" shadow="0">
      <root>
        <mxCell id="0" />
        <mxCell id="1" parent="0" />
        <mxCell id="VK4mMsS3UvgXJI4wBLyg-4" value="" style="points=[[0.35,0,0],[0.98,0.51,0],[1,0.71,0],[0.67,1,0],[0,0.795,0],[0,0.65,0]];verticalLabelPosition=bottom;sketch=0;html=1;verticalAlign=top;aspect=fixed;align=center;pointerEvents=1;shape=mxgraph.cisco19.user;fillColor=#005073;strokeColor=none;" vertex="1" parent="1">
          <mxGeometry x="40" y="200" width="70" height="70" as="geometry" />
        </mxCell>
        <mxCell id="VK4mMsS3UvgXJI4wBLyg-8" value="" style="endArrow=classic;html=1;rounded=0;" edge="1" parent="1">
          <mxGeometry width="50" height="50" relative="1" as="geometry">
            <mxPoint x="110" y="250" as="sourcePoint" />
            <mxPoint x="150" y="250" as="targetPoint" />
          </mxGeometry>
        </mxCell>
        <mxCell id="VK4mMsS3UvgXJI4wBLyg-20" value="" style="edgeStyle=orthogonalEdgeStyle;rounded=0;orthogonalLoop=1;jettySize=auto;html=1;entryX=0;entryY=0.5;entryDx=0;entryDy=0;entryPerimeter=0;" edge="1" parent="1" source="VK4mMsS3UvgXJI4wBLyg-10" target="VK4mMsS3UvgXJI4wBLyg-21">
          <mxGeometry relative="1" as="geometry">
            <mxPoint x="435" y="246.5" as="targetPoint" />
          </mxGeometry>
        </mxCell>
        <mxCell id="VK4mMsS3UvgXJI4wBLyg-10" value="&lt;font style=&quot;&quot; color=&quot;#ffffff&quot;&gt;&lt;i&gt;&lt;b&gt;NGINX &lt;br&gt;SERVER&lt;/b&gt;&lt;/i&gt;&lt;/font&gt;" style="ellipse;whiteSpace=wrap;html=1;fillColor=#FF8000;" vertex="1" parent="1">
          <mxGeometry x="290" y="206.5" width="70" height="80" as="geometry" />
        </mxCell>
        <mxCell id="VK4mMsS3UvgXJI4wBLyg-15" value="" style="edgeStyle=orthogonalEdgeStyle;rounded=0;orthogonalLoop=1;jettySize=auto;html=1;" edge="1" parent="1" source="VK4mMsS3UvgXJI4wBLyg-11" target="VK4mMsS3UvgXJI4wBLyg-10">
          <mxGeometry relative="1" as="geometry" />
        </mxCell>
        <mxCell id="VK4mMsS3UvgXJI4wBLyg-28" value="" style="edgeStyle=orthogonalEdgeStyle;rounded=0;orthogonalLoop=1;jettySize=auto;html=1;entryX=0.5;entryY=1;entryDx=0;entryDy=0;entryPerimeter=0;" edge="1" parent="1" source="VK4mMsS3UvgXJI4wBLyg-11" target="VK4mMsS3UvgXJI4wBLyg-26">
          <mxGeometry relative="1" as="geometry">
            <mxPoint x="205" y="160" as="targetPoint" />
            <Array as="points">
              <mxPoint x="188" y="180" />
              <mxPoint x="206" y="180" />
            </Array>
          </mxGeometry>
        </mxCell>
        <object label="" id="VK4mMsS3UvgXJI4wBLyg-11">
          <mxCell style="outlineConnect=0;dashed=0;verticalLabelPosition=bottom;verticalAlign=top;align=center;html=1;shape=mxgraph.aws3.ec2;fillColor=#F58534;gradientColor=none;" vertex="1" parent="1">
            <mxGeometry x="150" y="200" width="76.5" height="93" as="geometry" />
          </mxCell>
        </object>
        <mxCell id="VK4mMsS3UvgXJI4wBLyg-18" value="" style="image;sketch=0;aspect=fixed;html=1;points=[];align=center;fontSize=12;image=img/lib/mscae/VM_Linux.svg;" vertex="1" parent="1">
          <mxGeometry x="190" y="232.70000000000002" width="30" height="27.6" as="geometry" />
        </mxCell>
        <mxCell id="VK4mMsS3UvgXJI4wBLyg-25" value="" style="edgeStyle=orthogonalEdgeStyle;rounded=0;orthogonalLoop=1;jettySize=auto;html=1;" edge="1" parent="1" source="VK4mMsS3UvgXJI4wBLyg-21" target="VK4mMsS3UvgXJI4wBLyg-22">
          <mxGeometry relative="1" as="geometry" />
        </mxCell>
        <mxCell id="VK4mMsS3UvgXJI4wBLyg-21" value="" style="outlineConnect=0;dashed=0;verticalLabelPosition=bottom;verticalAlign=top;align=center;html=1;shape=mxgraph.aws3.ecs;fillColor=#F58534;gradientColor=none;" vertex="1" parent="1">
          <mxGeometry x="425" y="207.88" width="80" height="77.25" as="geometry" />
        </mxCell>
        <mxCell id="VK4mMsS3UvgXJI4wBLyg-33" value="" style="edgeStyle=orthogonalEdgeStyle;rounded=0;orthogonalLoop=1;jettySize=auto;html=1;" edge="1" parent="1" source="VK4mMsS3UvgXJI4wBLyg-22" target="VK4mMsS3UvgXJI4wBLyg-32">
          <mxGeometry relative="1" as="geometry" />
        </mxCell>
        <mxCell id="VK4mMsS3UvgXJI4wBLyg-22" value="" style="sketch=0;points=[[0,0,0],[0.25,0,0],[0.5,0,0],[0.75,0,0],[1,0,0],[0,1,0],[0.25,1,0],[0.5,1,0],[0.75,1,0],[1,1,0],[0,0.25,0],[0,0.5,0],[0,0.75,0],[1,0.25,0],[1,0.5,0],[1,0.75,0]];outlineConnect=0;fontColor=#232F3E;fillColor=#ED7100;strokeColor=#ffffff;dashed=0;verticalLabelPosition=bottom;verticalAlign=top;align=center;html=1;fontSize=12;fontStyle=0;aspect=fixed;shape=mxgraph.aws4.resourceIcon;resIcon=mxgraph.aws4.eks;" vertex="1" parent="1">
          <mxGeometry x="590" y="208.5" width="78" height="78" as="geometry" />
        </mxCell>
        <mxCell id="VK4mMsS3UvgXJI4wBLyg-26" value="" style="outlineConnect=0;dashed=0;verticalLabelPosition=bottom;verticalAlign=top;align=center;html=1;shape=mxgraph.aws3.virtual_private_cloud;fillColor=#F58534;gradientColor=none;" vertex="1" parent="1">
          <mxGeometry x="165.25" y="90" width="79.5" height="54" as="geometry" />
        </mxCell>
        <mxCell id="VK4mMsS3UvgXJI4wBLyg-31" value="" style="edgeStyle=orthogonalEdgeStyle;rounded=0;orthogonalLoop=1;jettySize=auto;html=1;" edge="1" parent="1" source="VK4mMsS3UvgXJI4wBLyg-30" target="VK4mMsS3UvgXJI4wBLyg-21">
          <mxGeometry relative="1" as="geometry" />
        </mxCell>
        <mxCell id="VK4mMsS3UvgXJI4wBLyg-30" value="" style="image;sketch=0;aspect=fixed;html=1;points=[];align=center;fontSize=12;image=img/lib/mscae/Docker.svg;" vertex="1" parent="1">
          <mxGeometry x="450" y="110" width="74.39" height="61" as="geometry" />
        </mxCell>
        <mxCell id="VK4mMsS3UvgXJI4wBLyg-32" value="" style="dashed=0;outlineConnect=0;html=1;align=center;labelPosition=center;verticalLabelPosition=bottom;verticalAlign=top;shape=mxgraph.weblogos.java" vertex="1" parent="1">
          <mxGeometry x="730" y="203" width="60" height="89" as="geometry" />
        </mxCell>
        <mxCell id="VK4mMsS3UvgXJI4wBLyg-37" value="" style="edgeStyle=orthogonalEdgeStyle;rounded=0;orthogonalLoop=1;jettySize=auto;html=1;" edge="1" parent="1" source="VK4mMsS3UvgXJI4wBLyg-35" target="VK4mMsS3UvgXJI4wBLyg-26">
          <mxGeometry relative="1" as="geometry" />
        </mxCell>
        <mxCell id="VK4mMsS3UvgXJI4wBLyg-35" value="&lt;b&gt;&lt;i style=&quot;&quot;&gt;&lt;font style=&quot;background-color: rgb(255, 128, 0);&quot; color=&quot;#ffffff&quot;&gt;Security groups&lt;/font&gt;&lt;/i&gt;&lt;/b&gt;" style="ellipse;whiteSpace=wrap;html=1;fillColor=#FF8000;strokeColor=#d79b00;" vertex="1" parent="1">
          <mxGeometry x="166.5" y="10" width="60" height="50" as="geometry" />
        </mxCell>
        <mxCell id="VK4mMsS3UvgXJI4wBLyg-38" value="" style="edgeStyle=orthogonalEdgeStyle;rounded=0;orthogonalLoop=1;jettySize=auto;html=1;" edge="1" parent="1" source="VK4mMsS3UvgXJI4wBLyg-36" target="VK4mMsS3UvgXJI4wBLyg-26">
          <mxGeometry relative="1" as="geometry" />
        </mxCell>
        <mxCell id="VK4mMsS3UvgXJI4wBLyg-36" value="&lt;b&gt;&lt;i&gt;&lt;font color=&quot;#ffffff&quot;&gt;Routing&amp;nbsp;&lt;br&gt;&amp;amp;&lt;br&gt;Subnets&lt;/font&gt;&lt;/i&gt;&lt;/b&gt;" style="ellipse;whiteSpace=wrap;html=1;aspect=fixed;fillColor=#FF8000;" vertex="1" parent="1">
          <mxGeometry x="285" y="20" width="80" height="80" as="geometry" />
        </mxCell>
        <mxCell id="VK4mMsS3UvgXJI4wBLyg-40" value="&lt;b&gt;&lt;font color=&quot;#ff8000&quot;&gt;AWS&lt;br&gt;ECS&lt;/font&gt;&lt;/b&gt;" style="text;html=1;strokeColor=none;fillColor=none;align=center;verticalAlign=middle;whiteSpace=wrap;rounded=0;" vertex="1" parent="1">
          <mxGeometry x="426" y="286.5" width="60" height="30" as="geometry" />
        </mxCell>
        <mxCell id="VK4mMsS3UvgXJI4wBLyg-42" value="&lt;b&gt;&lt;font color=&quot;#ff8000&quot;&gt;AWS&lt;br&gt;EC2&amp;nbsp;&lt;br&gt;AMAZON&lt;br&gt;LINUX SERVER&lt;br&gt;&lt;br&gt;&lt;/font&gt;&lt;/b&gt;" style="text;html=1;strokeColor=none;fillColor=none;align=center;verticalAlign=middle;whiteSpace=wrap;rounded=0;" vertex="1" parent="1">
          <mxGeometry x="158.25" y="330" width="60" height="30" as="geometry" />
        </mxCell>
        <mxCell id="VK4mMsS3UvgXJI4wBLyg-43" value="&lt;b&gt;&lt;font color=&quot;#ff8000&quot;&gt;AWS&lt;br&gt;EKS&lt;/font&gt;&lt;/b&gt;" style="text;html=1;strokeColor=none;fillColor=none;align=center;verticalAlign=middle;whiteSpace=wrap;rounded=0;" vertex="1" parent="1">
          <mxGeometry x="599" y="292" width="60" height="30" as="geometry" />
        </mxCell>
        <mxCell id="VK4mMsS3UvgXJI4wBLyg-44" value="&lt;b style=&quot;&quot;&gt;&lt;font color=&quot;#ff8000&quot;&gt;&lt;br&gt;SPRINGBOOT&lt;br&gt;APP&lt;/font&gt;&lt;/b&gt;" style="text;html=1;strokeColor=none;fillColor=none;align=center;verticalAlign=middle;whiteSpace=wrap;rounded=0;" vertex="1" parent="1">
          <mxGeometry x="720" y="282.5" width="90" height="38" as="geometry" />
        </mxCell>
        <mxCell id="VK4mMsS3UvgXJI4wBLyg-45" value="&lt;b&gt;&lt;font color=&quot;#ff8000&quot;&gt;ANGULAR&lt;br&gt;APP&lt;br&gt;DEPLOYED&lt;br&gt;IN NGINX SERVER INSIDE EC2&lt;/font&gt;&lt;/b&gt;" style="text;html=1;strokeColor=none;fillColor=none;align=center;verticalAlign=middle;whiteSpace=wrap;rounded=0;" vertex="1" parent="1">
          <mxGeometry x="295" y="293" width="65" height="107" as="geometry" />
        </mxCell>
        <mxCell id="VK4mMsS3UvgXJI4wBLyg-46" style="edgeStyle=orthogonalEdgeStyle;rounded=0;orthogonalLoop=1;jettySize=auto;html=1;exitX=0.5;exitY=1;exitDx=0;exitDy=0;" edge="1" parent="1" source="VK4mMsS3UvgXJI4wBLyg-45" target="VK4mMsS3UvgXJI4wBLyg-45">
          <mxGeometry relative="1" as="geometry" />
        </mxCell>
      </root>
    </mxGraphModel>
  </diagram>
</mxfile>
